<mxfile host="app.diagrams.net" modified="2022-05-10T02:15:11.537Z" agent="5.0 (Windows NT 10.0; Win64; x64) AppleWebKit/537.36 (KHTML, like Gecko) Chrome/101.0.4951.54 Safari/537.36" etag="8ifoDG1inFZ9xlNiwZtK" version="18.0.2" type="github">
  <diagram id="prtHgNgQTEPvFCAcTncT" name="Page-1">
    <mxGraphModel dx="1278" dy="579" grid="1" gridSize="10" guides="1" tooltips="1" connect="1" arrows="1" fold="1" page="1" pageScale="1" pageWidth="827" pageHeight="1169" math="0" shadow="0">
      <root>
        <mxCell id="0" />
        <mxCell id="1" parent="0" />
        <mxCell id="dNxyNK7c78bLwvsdeMH5-19" value="Main" style="swimlane;html=1;childLayout=stackLayout;resizeParent=1;resizeParentMax=0;horizontal=0;startSize=20;horizontalStack=0;direction=east;flipV=0;flipH=0;" parent="1" vertex="1">
          <mxGeometry x="30" y="30" width="1230" height="390" as="geometry" />
        </mxCell>
        <mxCell id="dNxyNK7c78bLwvsdeMH5-20" value="User" style="swimlane;html=1;startSize=20;horizontal=0;" parent="dNxyNK7c78bLwvsdeMH5-19" vertex="1">
          <mxGeometry x="20" width="1210" height="130" as="geometry" />
        </mxCell>
        <mxCell id="Pc6lHKf5YjpMIaUvnAvN-17" style="edgeStyle=orthogonalEdgeStyle;rounded=0;orthogonalLoop=1;jettySize=auto;html=1;entryX=0;entryY=0.5;entryDx=0;entryDy=0;" parent="dNxyNK7c78bLwvsdeMH5-20" source="dNxyNK7c78bLwvsdeMH5-23" target="Pc6lHKf5YjpMIaUvnAvN-18" edge="1">
          <mxGeometry relative="1" as="geometry">
            <mxPoint x="120" y="65" as="targetPoint" />
          </mxGeometry>
        </mxCell>
        <mxCell id="dNxyNK7c78bLwvsdeMH5-23" value="Start" style="ellipse;whiteSpace=wrap;html=1;" parent="dNxyNK7c78bLwvsdeMH5-20" vertex="1">
          <mxGeometry x="50" y="45" width="40" height="40" as="geometry" />
        </mxCell>
        <mxCell id="Pc6lHKf5YjpMIaUvnAvN-18" value="Run Program" style="shape=parallelogram;html=1;strokeWidth=2;perimeter=parallelogramPerimeter;whiteSpace=wrap;rounded=1;arcSize=12;size=0.23;" parent="dNxyNK7c78bLwvsdeMH5-20" vertex="1">
          <mxGeometry x="120" y="35" width="100" height="60" as="geometry" />
        </mxCell>
        <mxCell id="Pc6lHKf5YjpMIaUvnAvN-21" style="edgeStyle=orthogonalEdgeStyle;rounded=0;orthogonalLoop=1;jettySize=auto;html=1;" parent="dNxyNK7c78bLwvsdeMH5-19" source="Pc6lHKf5YjpMIaUvnAvN-18" target="Pc6lHKf5YjpMIaUvnAvN-20" edge="1">
          <mxGeometry relative="1" as="geometry" />
        </mxCell>
        <mxCell id="Pc6lHKf5YjpMIaUvnAvN-25" style="edgeStyle=orthogonalEdgeStyle;rounded=0;orthogonalLoop=1;jettySize=auto;html=1;" parent="dNxyNK7c78bLwvsdeMH5-19" source="Pc6lHKf5YjpMIaUvnAvN-20" target="Pc6lHKf5YjpMIaUvnAvN-24" edge="1">
          <mxGeometry relative="1" as="geometry" />
        </mxCell>
        <mxCell id="Pc6lHKf5YjpMIaUvnAvN-31" style="edgeStyle=orthogonalEdgeStyle;rounded=0;orthogonalLoop=1;jettySize=auto;html=1;entryX=0.5;entryY=1;entryDx=0;entryDy=0;" parent="dNxyNK7c78bLwvsdeMH5-19" source="Pc6lHKf5YjpMIaUvnAvN-24" target="Pc6lHKf5YjpMIaUvnAvN-30" edge="1">
          <mxGeometry relative="1" as="geometry" />
        </mxCell>
        <mxCell id="Pc6lHKf5YjpMIaUvnAvN-34" value="True" style="edgeStyle=orthogonalEdgeStyle;rounded=0;orthogonalLoop=1;jettySize=auto;html=1;entryX=0.5;entryY=0;entryDx=0;entryDy=0;fontSize=12;" parent="dNxyNK7c78bLwvsdeMH5-19" source="Pc6lHKf5YjpMIaUvnAvN-12" target="Pc6lHKf5YjpMIaUvnAvN-33" edge="1">
          <mxGeometry x="-0.5826" relative="1" as="geometry">
            <mxPoint as="offset" />
          </mxGeometry>
        </mxCell>
        <mxCell id="Pc6lHKf5YjpMIaUvnAvN-37" style="edgeStyle=orthogonalEdgeStyle;rounded=0;orthogonalLoop=1;jettySize=auto;html=1;entryX=0.5;entryY=0;entryDx=0;entryDy=0;fontSize=10;" parent="dNxyNK7c78bLwvsdeMH5-19" source="Pc6lHKf5YjpMIaUvnAvN-35" target="Pc6lHKf5YjpMIaUvnAvN-33" edge="1">
          <mxGeometry relative="1" as="geometry">
            <Array as="points">
              <mxPoint x="530" y="280" />
              <mxPoint x="415" y="280" />
            </Array>
          </mxGeometry>
        </mxCell>
        <mxCell id="Pc6lHKf5YjpMIaUvnAvN-46" style="edgeStyle=orthogonalEdgeStyle;rounded=0;orthogonalLoop=1;jettySize=auto;html=1;entryX=0.5;entryY=1;entryDx=0;entryDy=0;fontSize=10;" parent="dNxyNK7c78bLwvsdeMH5-19" source="Pc6lHKf5YjpMIaUvnAvN-33" target="Pc6lHKf5YjpMIaUvnAvN-45" edge="1">
          <mxGeometry relative="1" as="geometry" />
        </mxCell>
        <mxCell id="Pc6lHKf5YjpMIaUvnAvN-13" value="Program" style="swimlane;html=1;startSize=20;horizontal=0;" parent="dNxyNK7c78bLwvsdeMH5-19" vertex="1">
          <mxGeometry x="20" y="130" width="1210" height="130" as="geometry">
            <mxRectangle x="20" y="120" width="430" height="20" as="alternateBounds" />
          </mxGeometry>
        </mxCell>
        <mxCell id="Pc6lHKf5YjpMIaUvnAvN-20" value="&lt;span&gt;Request Dependency Data&lt;/span&gt;" style="rounded=0;whiteSpace=wrap;html=1;fontFamily=Helvetica;fontSize=12;fontColor=#000000;align=center;" parent="Pc6lHKf5YjpMIaUvnAvN-13" vertex="1">
          <mxGeometry x="130" y="35" width="80" height="60" as="geometry" />
        </mxCell>
        <mxCell id="Pc6lHKf5YjpMIaUvnAvN-32" style="edgeStyle=orthogonalEdgeStyle;rounded=0;orthogonalLoop=1;jettySize=auto;html=1;entryX=0;entryY=0.5;entryDx=0;entryDy=0;" parent="Pc6lHKf5YjpMIaUvnAvN-13" source="Pc6lHKf5YjpMIaUvnAvN-30" target="Pc6lHKf5YjpMIaUvnAvN-12" edge="1">
          <mxGeometry relative="1" as="geometry">
            <mxPoint x="380" y="70" as="targetPoint" />
          </mxGeometry>
        </mxCell>
        <mxCell id="Pc6lHKf5YjpMIaUvnAvN-30" value="Fetch Data From Excel Files" style="rounded=0;whiteSpace=wrap;html=1;fontFamily=Helvetica;fontSize=12;fontColor=#000000;align=center;" parent="Pc6lHKf5YjpMIaUvnAvN-13" vertex="1">
          <mxGeometry x="240" y="35" width="80" height="60" as="geometry" />
        </mxCell>
        <mxCell id="Pc6lHKf5YjpMIaUvnAvN-36" value="&lt;font style=&quot;font-size: 10px&quot;&gt;False&lt;/font&gt;" style="edgeStyle=orthogonalEdgeStyle;rounded=0;orthogonalLoop=1;jettySize=auto;html=1;entryX=0;entryY=0.5;entryDx=0;entryDy=0;fontSize=12;" parent="Pc6lHKf5YjpMIaUvnAvN-13" source="Pc6lHKf5YjpMIaUvnAvN-12" target="Pc6lHKf5YjpMIaUvnAvN-35" edge="1">
          <mxGeometry relative="1" as="geometry" />
        </mxCell>
        <mxCell id="Pc6lHKf5YjpMIaUvnAvN-12" value="&lt;font style=&quot;font-size: 12px&quot;&gt;State Is Produuction&lt;/font&gt;" style="rhombus;whiteSpace=wrap;html=1;fontFamily=Helvetica;fontSize=12;fontColor=#000000;align=center;" parent="Pc6lHKf5YjpMIaUvnAvN-13" vertex="1">
          <mxGeometry x="350" y="21.880000000000003" width="90" height="86.25" as="geometry" />
        </mxCell>
        <mxCell id="Pc6lHKf5YjpMIaUvnAvN-35" value="Write Data To Local JSON File" style="rounded=0;whiteSpace=wrap;html=1;fontFamily=Helvetica;fontSize=12;fontColor=#000000;align=center;" parent="Pc6lHKf5YjpMIaUvnAvN-13" vertex="1">
          <mxGeometry x="470" y="35.00999999999999" width="80" height="60" as="geometry" />
        </mxCell>
        <mxCell id="J__4j8VrGiHWxLDltHCz-1" style="edgeStyle=orthogonalEdgeStyle;rounded=0;orthogonalLoop=1;jettySize=auto;html=1;entryX=0;entryY=0.5;entryDx=0;entryDy=0;" parent="Pc6lHKf5YjpMIaUvnAvN-13" source="Pc6lHKf5YjpMIaUvnAvN-45" target="Pc6lHKf5YjpMIaUvnAvN-72" edge="1">
          <mxGeometry relative="1" as="geometry" />
        </mxCell>
        <mxCell id="Pc6lHKf5YjpMIaUvnAvN-45" value="Create Summary Excel Files" style="rounded=0;whiteSpace=wrap;html=1;fontFamily=Helvetica;fontSize=12;fontColor=#000000;align=center;" parent="Pc6lHKf5YjpMIaUvnAvN-13" vertex="1">
          <mxGeometry x="580" y="34.99999999999999" width="80" height="60" as="geometry" />
        </mxCell>
        <mxCell id="Pc6lHKf5YjpMIaUvnAvN-74" value="Get The Last Time Modified Data From Excel File" style="rounded=0;whiteSpace=wrap;html=1;fontFamily=Helvetica;fontSize=12;fontColor=#000000;align=center;" parent="Pc6lHKf5YjpMIaUvnAvN-13" vertex="1">
          <mxGeometry x="910" y="34.99999999999999" width="80" height="60" as="geometry" />
        </mxCell>
        <mxCell id="Pc6lHKf5YjpMIaUvnAvN-72" value="Convert Summary Excel Files To PDF" style="rounded=0;whiteSpace=wrap;html=1;fontFamily=Helvetica;fontSize=12;fontColor=#000000;align=center;" parent="Pc6lHKf5YjpMIaUvnAvN-13" vertex="1">
          <mxGeometry x="690" y="35" width="80" height="60" as="geometry" />
        </mxCell>
        <mxCell id="Pc6lHKf5YjpMIaUvnAvN-14" value="Database" style="swimlane;html=1;startSize=20;horizontal=0;" parent="dNxyNK7c78bLwvsdeMH5-19" vertex="1">
          <mxGeometry x="20" y="260" width="1210" height="130" as="geometry">
            <mxRectangle x="20" y="120" width="430" height="20" as="alternateBounds" />
          </mxGeometry>
        </mxCell>
        <mxCell id="Pc6lHKf5YjpMIaUvnAvN-24" value="Retrieve Dependency Data" style="rounded=0;whiteSpace=wrap;html=1;fontFamily=Helvetica;fontSize=12;fontColor=#000000;align=center;" parent="Pc6lHKf5YjpMIaUvnAvN-14" vertex="1">
          <mxGeometry x="130" y="35" width="80" height="60" as="geometry" />
        </mxCell>
        <mxCell id="Pc6lHKf5YjpMIaUvnAvN-33" value="Upload Data To Database" style="rounded=0;whiteSpace=wrap;html=1;fontFamily=Helvetica;fontSize=12;fontColor=#000000;align=center;" parent="Pc6lHKf5YjpMIaUvnAvN-14" vertex="1">
          <mxGeometry x="355" y="35" width="80" height="60" as="geometry" />
        </mxCell>
        <mxCell id="J__4j8VrGiHWxLDltHCz-3" style="edgeStyle=orthogonalEdgeStyle;rounded=0;orthogonalLoop=1;jettySize=auto;html=1;" parent="Pc6lHKf5YjpMIaUvnAvN-14" source="Pc6lHKf5YjpMIaUvnAvN-77" target="Pc6lHKf5YjpMIaUvnAvN-80" edge="1">
          <mxGeometry relative="1" as="geometry" />
        </mxCell>
        <mxCell id="Pc6lHKf5YjpMIaUvnAvN-77" value="Upload The Last Time Modified Data To Database" style="rounded=0;whiteSpace=wrap;html=1;fontFamily=Helvetica;fontSize=12;fontColor=#000000;align=center;" parent="Pc6lHKf5YjpMIaUvnAvN-14" vertex="1">
          <mxGeometry x="1020" y="35" width="80" height="60" as="geometry" />
        </mxCell>
        <mxCell id="Pc6lHKf5YjpMIaUvnAvN-80" value="End" style="ellipse;whiteSpace=wrap;html=1;" parent="Pc6lHKf5YjpMIaUvnAvN-14" vertex="1">
          <mxGeometry x="1130" y="45" width="40" height="40" as="geometry" />
        </mxCell>
        <mxCell id="HVS3sgC1FYmyGMeZBoFa-1" value="Upload Summary Files To Database" style="rounded=0;whiteSpace=wrap;html=1;fontFamily=Helvetica;fontSize=12;fontColor=#000000;align=center;" vertex="1" parent="Pc6lHKf5YjpMIaUvnAvN-14">
          <mxGeometry x="800" y="35" width="80" height="60" as="geometry" />
        </mxCell>
        <mxCell id="HVS3sgC1FYmyGMeZBoFa-2" style="edgeStyle=orthogonalEdgeStyle;rounded=0;orthogonalLoop=1;jettySize=auto;html=1;entryX=0;entryY=0.5;entryDx=0;entryDy=0;" edge="1" parent="dNxyNK7c78bLwvsdeMH5-19" source="HVS3sgC1FYmyGMeZBoFa-1" target="Pc6lHKf5YjpMIaUvnAvN-74">
          <mxGeometry relative="1" as="geometry">
            <Array as="points">
              <mxPoint x="910" y="325" />
              <mxPoint x="910" y="195" />
            </Array>
          </mxGeometry>
        </mxCell>
        <mxCell id="HVS3sgC1FYmyGMeZBoFa-3" style="edgeStyle=orthogonalEdgeStyle;rounded=0;orthogonalLoop=1;jettySize=auto;html=1;entryX=0;entryY=0.5;entryDx=0;entryDy=0;" edge="1" parent="dNxyNK7c78bLwvsdeMH5-19" source="Pc6lHKf5YjpMIaUvnAvN-72" target="HVS3sgC1FYmyGMeZBoFa-1">
          <mxGeometry relative="1" as="geometry">
            <mxPoint x="820" y="260" as="targetPoint" />
            <Array as="points">
              <mxPoint x="810" y="195" />
              <mxPoint x="810" y="325" />
            </Array>
          </mxGeometry>
        </mxCell>
        <mxCell id="HVS3sgC1FYmyGMeZBoFa-4" style="edgeStyle=orthogonalEdgeStyle;rounded=0;orthogonalLoop=1;jettySize=auto;html=1;entryX=0;entryY=0.5;entryDx=0;entryDy=0;" edge="1" parent="dNxyNK7c78bLwvsdeMH5-19" source="Pc6lHKf5YjpMIaUvnAvN-74" target="Pc6lHKf5YjpMIaUvnAvN-77">
          <mxGeometry relative="1" as="geometry">
            <Array as="points">
              <mxPoint x="1030" y="195" />
              <mxPoint x="1030" y="325" />
            </Array>
          </mxGeometry>
        </mxCell>
      </root>
    </mxGraphModel>
  </diagram>
</mxfile>
